PathFileType	4	(x/y/z)	S09_P20_T26
DataRate	CameraRate	NumFrames	NumMarkers	Units	OrigDataRate	OrigDataStartFrame	OrigNumFrames
240	240	10	51	mm	240	50	394
Frame#	Time	Sternum			R.Acromium			L.Acromium			Top.Head			R.ASIS			L.ASIS			R.PSIS			L.PSIS			R.Great.Tro			L.Great.Tro			R.Iliac.Crest			L.Iliac.Crest			V.Sacral			R.Thigh.Upper.Post			R.Thigh.Lower.Ant			R.Thigh.Lower.Post			R.Thigh.Upper.Ant			R.Knee.Lat			R.Knee.Med			R.Shank.Upper.Post			R.Shank.Lower.Ant			R.Shank.Lower.Post			R.Shank.Upper.Ant			R.Ankle.Lat			R.Ankle.Med			R.Heel.Upper			R.Heel.Med			R.Heel.Lat			R.Toe.Lat			R.Toe.Med			R.Toe.Tip			L.Thigh.Upper.Post			L.Thigh.Lower.Ant			L.Thigh.Lower.Post			L.Thigh.Upper.Ant			L.Knee.Lat			L.Knee.Med			L.Shank.Upper.Post			L.Shank.Lower.Ant			L.Shank.Lower.Post			L.Shank.Upper.Ant			L.Ankle.Lat			L.Ankle.Med			L.Heel.Upper			L.Heel.Med			L.Heel.Lat			L.Toe.Lat			L.Toe.Med			L.Toe.Tip			Cervical.Spine			Back			
		X1	Y1	Z1	X2	Y2	Z2	X3	Y3	Z3	X4	Y4	Z4	X5	Y5	Z5	X6	Y6	Z6	X7	Y7	Z7	X8	Y8	Z8	X9	Y9	Z9	X10	Y10	Z10	X11	Y11	Z11	X12	Y12	Z12	X13	Y13	Z13	X14	Y14	Z14	X15	Y15	Z15	X16	Y16	Z16	X17	Y17	Z17	X18	Y18	Z18	X19	Y19	Z19	X20	Y20	Z20	X21	Y21	Z21	X22	Y22	Z22	X23	Y23	Z23	X24	Y24	Z24	X25	Y25	Z25	X26	Y26	Z26	X27	Y27	Z27	X28	Y28	Z28	X29	Y29	Z29	X30	Y30	Z30	X31	Y31	Z31	X32	Y32	Z32	X33	Y33	Z33	X34	Y34	Z34	X35	Y35	Z35	X36	Y36	Z36	X37	Y37	Z37	X38	Y38	Z38	X39	Y39	Z39	X40	Y40	Z40	X41	Y41	Z41	X42	Y42	Z42	X43	Y43	Z43	X44	Y44	Z44	X45	Y45	Z45	X46	Y46	Z46	X47	Y47	Z47	X48	Y48	Z48	X49	Y49	Z49	X50	Y50	Z50	X51	Y51	Z51	

50	0.20417	NaN	NaN	NaN	-1160.1	1439.8	447.45	-1148	1439.8	136.65	-1164.8	1748.4	289.71	-1090.7	1019.3	408.96	-1080.8	1032.8	163.09	-1313.9	1043.5	324.74	-1303.8	1051.4	235.6	-1175.6	930.45	476.72	-1153.3	943.23	91.415	-1189	1097.9	451.44	-1186.2	1127.9	129.4	-1324	1010.5	273.73	-1118.4	690.66	467.36	-1021.7	605.11	454.05	-1100.8	599.23	447.72	-1045.9	692	470.25	-1039.4	519.71	444.88	-1025.3	507.2	322.07	-1199.8	438.82	439.61	-1197.2	348.03	434.37	NaN	NaN	NaN	-1148.2	401.52	447.82	-1368.7	245.1	402.82	-1338.4	225.05	324.55	-1423.1	280.41	339.99	-1435.9	250.48	310.41	-1457.1	268.48	373.49	-1374.3	134.34	448.24	-1327	92.761	357.16	-1288.9	77.155	405.83	-1199.2	681.38	145.97	-1109.6	589.75	152.86	-1175.4	593.39	168.9	-1127.6	674.05	125.51	-1119	509.68	168	-1104.3	527.76	298.56	-1169	377.85	156.41	-1111.1	285.9	177.8	-1171.8	301.78	165.6	-1107.5	362.81	168.02	-1170.5	105.41	198.95	-1159.1	99.852	291.96	-1245.7	74.199	251.28	-1234.5	49.549	283.74	-1244.7	45.534	222.95	-1069.7	42.746	172.64	-1035.1	41.289	282.69	-981.49	55.727	224.31	-1245.5	1492.4	299.63	-1291.5	1225.9	283.61
51	0.20833	NaN	NaN	NaN	-1155.2	1440.3	447.25	-1142.2	1440.4	136.52	-1159.4	1748.9	289.43	-1086	1020.2	408.48	-1075.8	1033.1	162.59	-1309.1	1044.2	323.9	-1298.9	1052	234.73	-1170.8	931.33	476.2	-1148.3	943.39	91.088	-1184.4	1098.8	450.8	-1181	1128.3	128.75	-1319	1011.1	272.9	-1110.9	691.99	467.13	-1013.4	607.39	453.6	-1092.5	600.73	447.64	-1038.3	694.04	469.79	-1030.2	521.74	444.53	-1015.7	509.35	321.72	-1189.9	439.19	439.16	-1186.5	348.48	434.05	NaN	NaN	NaN	-1137.9	402.47	447.41	-1357.7	244.28	402.62	-1326.5	224.12	324.31	-1412.1	277.87	339.72	-1424.5	247.65	310.27	-1445.5	265.63	373.33	-1360.1	133.26	448.36	-1312.3	92.298	357.19	-1274	77.44	405.91	-1196.1	682.13	145.85	-1106.9	589.88	152.68	-1172.8	593.93	168.72	-1124.4	674.3	125.4	-1116.9	509.77	167.83	-1102.1	527.74	298.4	-1167.4	378.14	156.33	-1110	285.93	177.73	-1170.6	302.09	165.51	-1106.1	362.82	167.9	-1170.2	105.61	199.03	-1158.9	100.15	292.01	-1245.7	74.46	251.36	-1234.4	49.712	283.82	-1244.6	45.77	222.99	-1069.6	42.745	172.65	-1035.1	41.174	282.69	-981.37	55.475	224.31	-1240.1	1493	299.25	-1286.4	1226.6	282.85
52	0.2125	NaN	NaN	NaN	-1150.3	1440.8	447.04	-1136.4	1441	136.39	-1154.1	1749.4	289.16	-1081.3	1021.1	408	-1070.7	1033.4	162.1	-1304.3	1044.9	323.06	-1294	1052.6	233.87	-1166.1	932.24	475.69	-1143.4	943.55	90.789	-1179.9	1099.7	450.14	-1175.7	1128.7	128.09	-1314.1	1011.8	272.09	-1103.5	693.34	466.93	-1005.2	609.68	453.11	-1084.2	602.24	447.58	-1030.9	696.09	469.31	-1021.1	523.8	444.14	-1006.4	511.51	321.34	-1180.1	439.47	438.72	-1175.8	348.83	433.73	NaN	NaN	NaN	-1127.5	403.37	446.99	-1346.6	243.19	402.45	-1314.4	222.99	324.08	-1400.9	275.04	339.46	-1412.9	244.52	310.13	-1433.7	262.45	373.18	-1345.7	131.95	448.48	-1297.4	91.667	357.23	-1258.9	77.592	406	-1193.1	682.87	145.72	-1104.2	590.01	152.49	-1170.2	594.48	168.52	-1121.2	674.55	125.29	-1114.8	509.86	167.66	-1099.8	527.73	298.23	-1166	378.45	156.24	-1108.9	285.96	177.65	-1169.4	302.41	165.43	-1104.7	362.86	167.78	-1170	105.81	199.11	-1158.6	100.46	292.05	-1245.7	74.721	251.44	-1234.3	49.876	283.89	-1244.4	46.001	223.02	-1069.5	42.739	172.66	-1035	41.065	282.68	-981.24	55.226	224.3	-1234.7	1493.6	298.88	-1281.3	1227.3	282.1
53	0.21667	NaN	NaN	NaN	-1145.4	1441.3	446.84	-1130.6	1441.7	136.26	-1148.7	1749.9	288.91	-1076.5	1022	407.52	-1065.7	1033.6	161.61	-1299.5	1045.7	322.25	-1289.1	1053.2	233.04	-1161.3	933.18	475.2	-1138.5	943.7	90.515	-1175.3	1100.6	449.46	-1170.4	1129	127.42	-1309.2	1012.4	271.3	-1096.1	694.71	466.75	-997.09	611.97	452.58	-1076	603.78	447.52	-1023.5	698.13	468.8	-1012.1	525.86	443.73	-997.12	513.67	320.94	-1170.3	439.64	438.28	-1165	349.08	433.4	-1225.3	386.34	424.56	-1117.3	404.21	446.58	-1335.3	241.82	402.3	-1302.2	221.65	323.86	-1389.5	271.94	339.2	-1401.2	241.11	310	-1421.8	258.93	373.03	-1331.1	130.45	448.61	-1282.2	90.882	357.28	-1243.6	77.624	406.09	-1190.1	683.61	145.57	-1101.5	590.15	152.31	-1167.7	595.04	168.32	-1117.9	674.8	125.18	-1112.8	509.97	167.48	-1097.6	527.73	298.05	-1164.5	378.76	156.16	-1107.9	286.01	177.56	-1168.3	302.74	165.34	-1103.3	362.9	167.65	-1169.7	106.01	199.18	-1158.4	100.8	292.08	-1245.7	74.98	251.51	-1234.3	50.039	283.96	-1244.3	46.229	223.06	-1069.5	42.73	172.67	-1034.9	40.962	282.67	-981.11	54.979	224.29	-1229.4	1494.2	298.52	-1276.2	1228	281.34
54	0.22083	NaN	NaN	NaN	-1140.6	1441.8	446.65	-1124.9	1442.3	136.15	-1143.3	1750.4	288.66	-1071.8	1022.9	407.04	-1060.7	1033.9	161.14	-1294.7	1046.4	321.45	-1284.2	1053.9	232.23	-1156.4	934.14	474.73	-1133.7	943.84	90.262	-1170.7	1101.4	448.78	-1165.1	1129.4	126.74	-1304.2	1013.1	270.54	-1088.7	696.08	466.6	-989.04	614.27	452	-1067.8	605.33	447.48	-1016.2	700.16	468.28	-1003.2	527.93	443.28	-988.03	515.82	320.53	-1160.6	439.71	437.84	-1154.2	349.24	433.07	-1216.3	385.51	424.3	-1107.1	404.98	446.17	-1323.8	240.16	402.15	-1289.7	220.11	323.64	-1378.1	268.56	338.94	-1389.3	237.43	309.86	-1409.7	255.05	372.87	-1316.4	128.76	448.75	-1266.9	89.957	357.35	-1228.1	77.548	406.2	-1187	684.33	145.41	-1098.9	590.29	152.12	-1165.1	595.61	168.1	-1114.7	675.05	125.06	-1110.7	510.08	167.3	-1095.4	527.74	297.86	-1163.1	379.07	156.07	-1106.9	286.06	177.45	-1167.2	303.08	165.26	-1102	362.96	167.52	-1169.4	106.22	199.25	-1158.1	101.15	292.09	-1245.7	75.235	251.59	-1234.2	50.202	284.02	-1244.2	46.452	223.09	-1069.4	42.718	172.67	-1034.8	40.865	282.66	-980.99	54.735	224.28	-1224.1	1494.8	298.17	-1271.1	1228.7	280.59
55	0.225	NaN	NaN	NaN	-1135.7	1442.3	446.45	-1119.1	1442.9	136.04	-1137.9	1750.8	288.43	-1067	1023.7	406.56	-1055.6	1034.1	160.67	-1289.8	1047.1	320.69	-1279.3	1054.5	231.45	-1151.5	935.11	474.28	-1128.8	943.97	90.026	-1166	1102.3	448.1	-1159.8	1129.7	126.05	-1299.3	1013.7	269.82	-1081.4	697.46	466.46	-981.08	616.55	451.39	-1059.8	606.88	447.43	-1008.9	702.18	467.75	-994.42	529.99	442.8	-979.11	517.97	320.09	-1150.9	439.67	437.41	-1143.4	349.31	432.74	-1206.8	384.6	424.03	-1096.9	405.69	445.77	-1312.1	238.21	402.02	-1277.1	218.39	323.44	-1366.4	264.92	338.68	-1377.1	233.47	309.73	-1397.4	250.81	372.71	-1301.6	126.91	448.9	-1251.3	88.907	357.44	-1212.4	77.379	406.33	-1183.9	685.05	145.24	-1096.2	590.43	151.93	-1162.6	596.19	167.87	-1111.5	675.29	124.94	-1108.7	510.2	167.11	-1093.2	527.76	297.67	-1161.7	379.4	155.99	-1105.9	286.13	177.35	-1166.1	303.42	165.18	-1100.7	363.04	167.38	-1169.1	106.43	199.32	-1157.9	101.52	292.1	-1245.8	75.485	251.66	-1234.1	50.366	284.09	-1244	46.674	223.12	-1069.4	42.701	172.68	-1034.7	40.775	282.64	-980.87	54.493	224.27	-1218.7	1495.4	297.83	-1266	1229.4	279.84
56	0.22917	NaN	NaN	NaN	-1130.8	1442.8	446.26	-1113.4	1443.5	135.94	-1132.5	1751.3	288.2	-1062.3	1024.6	406.08	-1050.6	1034.3	160.21	-1285	1047.9	319.95	-1274.5	1055.2	230.71	-1146.6	936.08	473.85	-1124	944.09	89.801	-1161.4	1103.2	447.42	-1154.5	1129.9	125.36	-1294.4	1014.4	269.13	-1074.2	698.84	466.35	-973.21	618.82	450.73	-1051.9	608.43	447.39	-1001.7	704.17	467.2	-985.73	532.04	442.3	-970.36	520.1	319.63	-1141.3	439.51	436.99	-1132.5	349.28	432.41	-1197.1	383.59	423.76	-1086.7	406.32	445.37	-1300.2	235.98	401.89	-1264.3	216.48	323.24	-1354.6	261.03	338.41	-1364.8	229.26	309.59	-1384.9	246.24	372.55	-1286.6	124.9	449.06	-1235.5	87.749	357.55	-1196.5	77.131	406.48	-1180.9	685.75	145.06	-1093.6	590.56	151.74	-1160.2	596.77	167.64	-1108.3	675.53	124.82	-1106.7	510.32	166.92	-1091	527.79	297.48	-1160.4	379.73	155.91	-1104.9	286.21	177.23	-1165	303.78	165.1	-1099.4	363.13	167.24	-1168.8	106.64	199.38	-1157.6	101.91	292.09	-1245.8	75.73	251.74	-1234.1	50.53	284.15	-1243.9	46.893	223.16	-1069.3	42.682	172.69	-1034.6	40.692	282.62	-980.74	54.255	224.25	-1213.4	1496	297.49	-1260.9	1230.1	279.11
57	0.23333	NaN	NaN	NaN	-1126	1443.2	446.06	-1107.7	1444.1	135.85	-1127	1751.7	287.99	-1057.5	1025.5	405.61	-1045.6	1034.4	159.75	-1280.2	1048.6	319.26	-1269.6	1055.8	230	-1141.7	937.06	473.45	-1119.2	944.21	89.585	-1156.7	1104.1	446.76	-1149.2	1130.2	124.68	-1289.5	1015	268.48	-1067	700.21	466.24	-965.42	621.06	450.04	-1044	609.98	447.33	-994.5	706.13	466.64	-977.16	534.08	441.78	-961.79	522.21	319.15	-1131.8	439.24	436.58	-1121.6	349.16	432.08	-1187.1	382.47	423.49	-1076.7	406.88	444.98	-1288	233.48	401.75	-1251.2	214.39	323.04	-1342.6	256.9	338.12	-1352.3	224.8	309.45	-1372.1	241.34	372.37	-1271.4	122.76	449.24	-1219.5	86.496	357.7	-1180.5	76.817	406.67	-1177.8	686.44	144.87	-1090.9	590.7	151.55	-1157.7	597.35	167.4	-1105.1	675.75	124.69	-1104.8	510.45	166.73	-1088.8	527.83	297.29	-1159	380.07	155.83	-1103.9	286.3	177.11	-1164	304.15	165.02	-1098.1	363.23	167.1	-1168.6	106.85	199.44	-1157.4	102.32	292.07	-1245.8	75.969	251.81	-1234	50.696	284.22	-1243.8	47.113	223.2	-1069.3	42.661	172.71	-1034.5	40.615	282.6	-980.62	54.02	224.24	-1208.1	1496.5	297.17	-1255.8	1230.7	278.38
58	0.2375	NaN	NaN	NaN	-1121.1	1443.7	445.87	-1102	1444.7	135.75	-1121.5	1752.1	287.79	-1052.8	1026.4	405.15	-1040.5	1034.5	159.31	-1275.4	1049.2	318.6	-1264.8	1056.5	229.33	-1136.7	938.04	473.07	-1114.5	944.32	89.373	-1152.1	1104.9	446.11	-1143.9	1130.4	124	-1284.6	1015.6	267.87	-1059.8	701.58	466.14	-957.73	623.27	449.31	-1036.2	611.51	447.27	-987.41	708.06	466.07	-968.7	536.09	441.23	-953.39	524.3	318.66	-1122.3	438.85	436.17	-1110.7	348.94	431.75	-1176.8	381.25	423.21	-1066.6	407.37	444.6	-1275.7	230.74	401.61	-1238	212.13	322.85	-1330.5	252.54	337.82	-1339.5	220.11	309.3	-1359.1	236.15	372.19	-1256.1	120.5	449.43	-1203.4	85.165	357.87	-1164.2	76.452	406.89	-1174.7	687.1	144.67	-1088.3	590.83	151.36	-1155.2	597.94	167.16	-1101.9	675.97	124.55	-1102.8	510.59	166.54	-1086.7	527.88	297.1	-1157.7	380.42	155.76	-1103	286.41	177	-1162.9	304.54	164.95	-1096.9	363.35	166.95	-1168.3	107.08	199.51	-1157.2	102.74	292.05	-1245.7	76.202	251.88	-1233.9	50.866	284.28	-1243.7	47.335	223.25	-1069.2	42.639	172.73	-1034.4	40.545	282.57	-980.5	53.788	224.22	-1202.7	1497	296.85	-1250.6	1231.4	277.66
59	0.24167	NaN	NaN	NaN	-1116.2	1444.1	445.68	-1096.3	1445.3	135.67	-1116.1	1752.5	287.59	-1048	1027.2	404.69	-1035.5	1034.6	158.87	-1270.5	1049.9	317.99	-1260	1057.1	228.71	-1131.7	939	472.73	-1109.8	944.43	89.161	-1147.4	1105.7	445.49	-1138.6	1130.7	123.33	-1279.7	1016.2	267.31	-1052.8	702.92	466.04	-950.13	625.44	448.56	-1028.5	613.02	447.19	-980.38	709.95	465.5	-960.36	538.08	440.66	-945.16	526.35	318.15	-1112.8	438.35	435.76	-1099.8	348.64	431.42	-1166.4	379.92	422.93	-1056.6	407.79	444.23	-1263.1	227.77	401.46	-1224.7	209.71	322.66	-1318.2	247.96	337.5	-1326.5	215.19	309.14	-1345.9	230.7	371.99	-1240.7	118.13	449.65	-1187	83.77	358.08	-1147.8	76.046	407.15	-1171.6	687.76	144.47	-1085.7	590.96	151.17	-1152.8	598.52	166.91	-1098.7	676.18	124.41	-1100.8	510.72	166.35	-1084.6	527.94	296.92	-1156.4	380.77	155.68	-1102	286.54	176.89	-1161.8	304.94	164.89	-1095.6	363.49	166.81	-1168	107.3	199.57	-1157	103.18	292.02	-1245.7	76.431	251.96	-1233.8	51.04	284.35	-1243.6	47.562	223.3	-1069.2	42.616	172.74	-1034.3	40.481	282.54	-980.38	53.559	224.21	-1197.4	1497.5	296.54	-1245.5	1232	276.96
